<svg id="介護ワーカー" xmlns="http://www.w3.org/2000/svg" viewBox="0 0 358.4 100"><defs><style>.cls-4{fill:#231815}</style></defs><g id="カラー"><path id="アイソレーション" fill="none" d="M0 0h358.4v100H0z"/><g id="ロゴ"><path fill="#006428" d="M74.93 25l-8.95 8.96v4.83L48.63 56.17V75l17.35-17.37v7.54l8.95-8.95V25z"/><path fill="#3cb37a" d="M74.93 25l-8.95 8.96h-4.82L43.81 51.33H25l17.35-17.37h-7.54L43.76 25h31.17z"/><path class="cls-4" d="M88 44.73a27.88 27.88 0 0016.23-14.62h6q4.89 8.37 16.75 13.47l-3 5.22c-7.76-3.75-13.29-8.13-16.63-13.19-3 5.74-8.84 10.8-16 13.87zm16 1.12v4.74c.2 8.93-2.3 13.83-9 17.61l-4-4.5c5.34-2.59 7.36-6.3 7.25-13.27v-4.58zm13.85-.32V68h-5.93V45.53zM147 37v4.22h-13.77V37zm-.72 26.69a37.13 37.13 0 008.12-1.36 27.13 27.13 0 01-4.1-3.62h-2.55v-3.94h20.17l2 2.16a24.5 24.5 0 01-6 5.33 45.29 45.29 0 007.8 1.2l-2.46 4.66A38.51 38.51 0 01159 65.05a37.61 37.61 0 01-10.5 3.19l-2.23-4v2h-7.72V68h-4.45V54.34h12.18zm15.48-20.28H169v2.39h-7.2v1.24h7.2v2.31h-7.2v1.31h9.11v2.87h-22.68v-7.24a12.8 12.8 0 01-1.27 1l-1.52-3.78v3.35h-10.82V43h10.62a13.26 13.26 0 004.46-6l1.51.27v-1.06h-4.45V32.5h4.45v-2.39h4.86v2.39h4.45v-2.39h5v2.39h5.37v3.71h-5.37V38h-2.71a12.67 12.67 0 01-.68 1.52h8v2.62h-8.39zm-16-12.19v4h-11.1v-4zm-.28 17.45v3.78h-10.86v-3.77zM138.6 62.1h3.34v-3.7h-3.34zm14.28-19.93v1.24h4.34v-1.23zm0 3.63v1.24h4.34v-1.23zm0 3.55v1.31h4.34v-1.3zm4.46-9.8c.28-.72.48-1.36.8-2.39l2.42.23v-1.18h-4.45V38H154c-.16.4-.44 1-.68 1.52zm-2 18.76a23.31 23.31 0 003.7 2.23 20.62 20.62 0 003.58-2.23zM209.82 34c0 11.51-1.23 18.2-4.14 22.83-2.31 4.1-8.91 8.08-16.07 9.68l-3.11-5.06c13.13-2.91 16.87-7.77 17.15-22.23h-19.53v10.42h-5.81V34zM252.51 45.65v5.66h-34.22v-5.66zM270.77 38.4V38l.05-1.83c0-1.71.07-3.23.07-5.1h6c0 2.91 0 4.42-.16 7.29h14c-.12 12.07-.72 20.52-1.55 23.35-.92 3-2.79 4.1-6.89 4.1a40.51 40.51 0 01-6-.48l-.88-5.62a32.85 32.85 0 006 .72c1.43 0 1.75-.24 2-1.75a101.73 101.73 0 001.15-15.14h-8.19c-.44 4.94-1.79 9.6-3.59 12.55A27.63 27.63 0 01262 66.05l-3.9-4.7a23.6 23.6 0 009.59-8.17 25.35 25.35 0 002.79-9.6h-11V38.4zM333.4 45.65v5.66h-34.22v-5.66z"/></g></g></svg>